<?xml version="1.0" encoding="utf-8"?>
<!-- Generator: Adobe Illustrator 16.0.0, SVG Export Plug-In . SVG Version: 6.00 Build 0)  -->
<!DOCTYPE svg PUBLIC "-//W3C//DTD SVG 1.1//EN" "http://www.w3.org/Graphics/SVG/1.1/DTD/svg11.dtd">
<svg version="1.1" id="Layer_1" xmlns="http://www.w3.org/2000/svg" xmlns:xlink="http://www.w3.org/1999/xlink" x="0px" y="0px"
	 width="100px" height="47.275px" viewBox="0 0 100 47.275" enable-background="new 0 0 100 47.275" xml:space="preserve">
<path fill="#CCCCCC" d="M98.923,19.999l-8.049-8.122H43.727C39.696,4.775,32.131-0.019,23.446,0C10.507-0.027,0.029,10.559,0,23.599
	c0.029,13.07,10.507,23.655,23.446,23.676c8.661-0.015,16.209-4.793,20.247-11.876h9.483l7.512-7.51l5.748,5.749l5.517-5.519
	l5.669,5.667l5.747-5.744l5.747,5.744l9.809-9.805C100.341,22.505,100.377,21.469,98.923,19.999z M13.18,29.808
	c-3.458-0.032-6.239-2.847-6.207-6.286c-0.032-3.487,2.749-6.299,6.207-6.283c3.401-0.018,6.182,2.796,6.208,6.283
	C19.363,26.962,16.582,29.775,13.18,29.808z"/>
</svg>
